<?xml version="1.0" standalone="no"?>
<!DOCTYPE svg PUBLIC "-//W3C//DTD SVG 20010904//EN"
 "http://www.w3.org/TR/2001/REC-SVG-20010904/DTD/svg10.dtd">
<svg version="1.0" xmlns="http://www.w3.org/2000/svg"
 width="100.000000pt" height="100.000000pt" viewBox="0 0 768.000000 768.000000"
 preserveAspectRatio="xMidYMid meet">

<g transform="translate(0.000000,768.000000) scale(0.100000,-0.100000)"
fill="#000000" stroke="none">
<path d="M828 7660 c-193 -33 -375 -127 -521 -269 -130 -126 -215 -270 -269
-457 l-23 -79 0 -3015 0 -3015 23 -79 c55 -189 140 -334 274 -462 139 -134
296 -217 483 -255 87 -18 202 -19 3045 -19 2842 0 2958 1 3045 19 183 38 337
118 476 249 151 143 249 317 290 518 19 90 19 177 17 3081 l-3 2988 -27 85
c-58 186 -138 318 -265 441 -124 121 -243 190 -423 247 l-85 27 -2995 1
c-1647 1 -3016 -2 -3042 -6z m6070 -108 c330 -88 571 -331 655 -659 l22 -88 0
-2965 0 -2965 -22 -88 c-85 -331 -330 -575 -661 -660 l-87 -22 -2965 0 -2965
0 -87 22 c-331 85 -576 329 -661 660 l-22 88 0 2965 0 2965 22 88 c94 366 386
628 758 677 33 4 1381 7 2995 6 l2935 -1 83 -23z"/>
<path d="M1505 7023 c-385 -61 -688 -330 -795 -703 -27 -95 -38 -306 -21 -406
53 -306 233 -556 504 -699 605 -319 1343 81 1406 763 38 409 -180 788 -553
963 -128 59 -220 80 -376 84 -74 2 -148 1 -165 -2z"/>
<path d="M3683 7020 c-202 -30 -402 -137 -551 -295 -95 -101 -164 -215 -208
-342 -45 -132 -58 -224 -51 -363 17 -338 194 -624 494 -796 146 -83 366 -133
528 -120 422 35 765 320 872 723 21 82 26 120 26 233 0 150 -14 231 -63 357
-101 262 -320 472 -590 565 -124 42 -316 58 -457 38z"/>
<path d="M5849 7014 c-367 -66 -664 -347 -760 -719 -20 -75 -23 -114 -23 -235
1 -159 15 -233 74 -373 159 -383 579 -628 991 -578 398 48 708 313 825 706 24
79 27 108 28 240 1 163 -12 242 -61 363 -172 431 -618 679 -1074 596z"/>
<path d="M1494 2566 c-383 -63 -684 -333 -787 -709 -19 -70 -22 -107 -22 -247
0 -191 15 -261 89 -415 52 -107 92 -165 178 -253 143 -147 297 -231 500 -272
628 -129 1206 391 1147 1031 -38 412 -327 747 -733 849 -103 26 -268 33 -372
16z"/>
<path d="M3685 2566 c-323 -53 -582 -249 -726 -549 -53 -112 -79 -220 -86
-357 -7 -139 6 -231 51 -363 125 -367 465 -622 857 -644 644 -36 1139 558 989
1186 -68 283 -274 533 -537 653 -158 71 -381 102 -548 74z"/>
<path d="M5870 2565 c-519 -81 -886 -591 -795 -1106 37 -211 125 -382 274
-529 124 -123 280 -210 456 -256 109 -28 342 -26 455 4 361 98 619 362 707
724 14 55 18 110 17 223 -1 131 -5 161 -28 240 -111 377 -410 644 -785 700
-115 18 -187 18 -301 0z"/>
</g>
</svg>
