<?xml version="1.0" standalone="no"?>
<!DOCTYPE svg PUBLIC "-//W3C//DTD SVG 20010904//EN"
 "http://www.w3.org/TR/2001/REC-SVG-20010904/DTD/svg10.dtd">
<svg version="1.0" xmlns="http://www.w3.org/2000/svg"
 width="100.000000pt" height="100.000000pt" viewBox="0 0 1200.000000 1200.000000"
 preserveAspectRatio="xMidYMid meet">
<metadata>
Created by potrace 1.16, written by Peter Selinger 2001-2019
</metadata>
<g transform="translate(0.000000,1200.000000) scale(0.100000,-0.100000)"
fill="#000000" stroke="none">
<path d="M1277 11969 c-326 -57 -633 -225 -861 -471 -181 -194 -303 -426 -374
-708 l-27 -105 -3 -4640 c-2 -4610 -2 -4641 18 -4759 108 -640 616 -1147 1258
-1257 112 -19 204 -19 4712 -19 4508 0 4600 0 4712 19 314 54 599 202 828 431
229 229 377 514 431 828 19 112 19 204 19 4712 0 4559 0 4599 -20 4715 -109
640 -615 1146 -1255 1255 -116 20 -154 20 -4723 19 -4487 -1 -4610 -1 -4715
-20z m9384 -153 c517 -84 941 -446 1103 -941 14 -44 34 -111 43 -150 17 -66
18 -361 21 -4680 3 -5139 9 -4697 -68 -4926 -45 -135 -82 -212 -155 -324 -212
-325 -556 -548 -944 -611 -128 -21 -9194 -21 -9322 0 -596 97 -1058 559 -1155
1155 -21 128 -21 9194 0 9322 96 592 555 1054 1146 1154 117 20 9209 21 9331
1z"/>
<path d="M2321 10980 c-231 -33 -448 -115 -651 -248 -113 -75 -327 -289 -402
-402 -112 -171 -186 -347 -229 -542 -29 -136 -36 -380 -15 -525 93 -632 555
-1124 1185 -1266 82 -18 128 -21 311 -21 185 0 228 3 312 21 540 122 960 499
1128 1014 55 166 73 307 67 514 -7 258 -44 409 -153 630 -203 410 -589 709
-1042 805 -111 24 -403 35 -511 20z"/>
<path d="M9235 4016 c-591 -99 -1070 -534 -1220 -1111 -38 -147 -48 -251 -42
-440 4 -118 12 -198 26 -260 137 -609 602 -1058 1216 -1175 96 -18 329 -24
442 -11 340 40 640 187 889 435 219 220 348 457 416 762 18 83 22 131 22 304
0 176 -3 220 -22 307 -130 596 -573 1042 -1165 1174 -118 27 -439 35 -562 15z"/>
</g>
</svg>
