<?xml version="1.0" standalone="no"?>
<!DOCTYPE svg PUBLIC "-//W3C//DTD SVG 20010904//EN"
 "http://www.w3.org/TR/2001/REC-SVG-20010904/DTD/svg10.dtd">
<svg version="1.0" xmlns="http://www.w3.org/2000/svg"
 width="100.000000pt" height="225.000000pt" viewBox="0 0 225.000000 225.000000"
 preserveAspectRatio="xMidYMid meet">
<metadata>
Created by potrace 1.16, written by Peter Selinger 2001-2019
</metadata>
<g transform="translate(0.000000,225.000000) scale(0.100000,-0.100000)"
fill="#000000" stroke="none">
<path d="M217 2236 c-101 -28 -185 -117 -207 -219 -7 -36 -10 -321 -8 -922 l3
-870 28 -57 c32 -64 80 -111 146 -142 46 -21 52 -21 946 -21 l900 0 57 28 c64
32 111 80 142 146 21 46 21 52 21 946 0 894 0 900 -21 946 -31 66 -78 114
-142 146 l-57 28 -880 2 c-700 2 -890 -1 -928 -11z m1853 -40 c49 -26 98 -74
123 -121 l22 -40 0 -910 c0 -868 -1 -912 -19 -945 -26 -49 -74 -98 -121 -123
l-40 -22 -910 0 -910 0 -40 22 c-47 25 -95 74 -121 123 -18 33 -19 77 -19 945
0 868 1 912 19 945 36 68 97 119 166 141 14 4 428 7 920 6 852 -2 897 -3 930
-21z"/>
<path d="M1032 1391 c-72 -25 -122 -67 -155 -132 -56 -110 -43 -225 35 -314
111 -126 312 -129 419 -7 50 56 69 108 69 187 0 90 -29 155 -95 213 -79 69
-173 88 -273 53z"/>
</g>
</svg>
