<?xml version="1.0" standalone="no"?>
<!DOCTYPE svg PUBLIC "-//W3C//DTD SVG 20010904//EN"
 "http://www.w3.org/TR/2001/REC-SVG-20010904/DTD/svg10.dtd">
<svg version="1.0" xmlns="http://www.w3.org/2000/svg"
 width="100.000000pt" height="100.000000pt" viewBox="0 0 557.000000 557.000000"
 preserveAspectRatio="xMidYMid meet">

<g transform="translate(0.000000,557.000000) scale(0.100000,-0.100000)"
fill="#000000" stroke="none">
<path d="M545 5544 c-193 -47 -373 -193 -465 -379 -82 -166 -75 46 -75 -2375
0 -2417 -6 -2224 73 -2382 98 -194 264 -328 477 -384 67 -18 159 -19 2230 -19
2071 0 2163 1 2230 19 265 70 461 266 531 531 18 67 19 159 19 2230 0 2071 -1
2163 -19 2230 -56 214 -197 387 -391 480 -144 69 30 65 -2375 64 -1859 -1
-2184 -3 -2235 -15z m4460 -69 c189 -49 345 -177 426 -350 63 -134 59 31 59
-2340 0 -2371 4 -2206 -59 -2340 -81 -173 -235 -298 -431 -352 -61 -17 -183
-18 -2215 -18 -2032 0 -2154 1 -2215 18 -197 54 -349 178 -431 352 -63 134
-59 -30 -59 2337 0 1545 3 2172 11 2210 15 73 67 181 123 256 75 100 223 197
351 228 39 10 542 12 2215 13 1919 1 2173 -1 2225 -14z"/>
<path d="M1025 5084 c-38 -8 -113 -35 -165 -61 -79 -38 -109 -60 -181 -132
-71 -71 -94 -102 -133 -181 -101 -206 -101 -414 0 -620 39 -79 62 -110 133
-181 72 -72 102 -94 181 -132 287 -140 596 -85 815 144 258 270 258 688 0 958
-73 76 -166 140 -255 175 -112 45 -267 56 -395 30z"/>
<path d="M4255 5084 c-38 -8 -113 -35 -165 -61 -79 -38 -109 -60 -181 -132
-71 -71 -94 -102 -133 -181 -101 -206 -101 -414 0 -620 39 -79 62 -110 133
-181 72 -72 102 -94 181 -132 287 -140 596 -85 815 144 123 129 195 306 195
479 0 279 -186 550 -450 654 -112 45 -267 56 -395 30z"/>
<path d="M1025 1854 c-38 -8 -113 -35 -165 -61 -79 -38 -109 -60 -181 -132
-71 -71 -94 -102 -133 -181 -101 -206 -101 -414 0 -620 39 -79 62 -110 133
-181 72 -72 102 -94 181 -132 287 -140 596 -85 815 144 258 270 258 688 0 958
-73 76 -166 140 -255 175 -112 45 -267 56 -395 30z"/>
<path d="M4255 1854 c-38 -8 -113 -35 -165 -61 -79 -38 -109 -60 -181 -132
-71 -71 -94 -102 -133 -181 -101 -206 -101 -414 0 -620 39 -79 62 -110 133
-181 72 -72 102 -94 181 -132 287 -140 596 -85 815 144 123 129 195 306 195
479 0 279 -186 550 -450 654 -112 45 -267 56 -395 30z"/>
</g>
</svg>
