<?xml version="1.0" standalone="no"?>
<!DOCTYPE svg PUBLIC "-//W3C//DTD SVG 20010904//EN"
 "http://www.w3.org/TR/2001/REC-SVG-20010904/DTD/svg10.dtd">
<svg version="1.0" xmlns="http://www.w3.org/2000/svg"
 width="100.000000pt" height="100.000000pt" viewBox="0 0 1200.000000 1200.000000"
 preserveAspectRatio="xMidYMid meet">

<g transform="translate(0.000000,1200.000000) scale(0.100000,-0.100000)"
fill="#000000" stroke="none">
<path d="M1374 11979 c-675 -79 -1214 -588 -1340 -1264 -18 -97 -19 -253 -19
-4715 0 -4462 1 -4618 19 -4715 105 -564 500 -1020 1036 -1195 63 -21 160 -46
215 -56 97 -18 254 -19 4725 -19 l4625 0 105 23 c267 59 480 158 675 315 282
227 464 528 547 907 l23 105 0 4625 c0 4471 -1 4628 -19 4725 -91 488 -393
892 -833 1114 -105 52 -234 97 -373 129 l-115 27 -4600 1 c-2530 1 -4632 -2
-4671 -7z m9348 -167 c577 -133 978 -542 1095 -1117 17 -86 18 -279 18 -4695
0 -4416 -1 -4609 -18 -4695 -118 -578 -523 -990 -1100 -1117 l-102 -23 -4615
0 -4615 0 -102 23 c-576 127 -993 551 -1099 1117 -18 97 -19 245 -19 4695 0
4450 1 4598 19 4695 113 605 603 1063 1212 1134 38 5 2130 8 4649 7 l4580 -1
97 -23z"/>
<path d="M2405 10984 c-482 -50 -882 -286 -1140 -674 -335 -502 -334 -1163 2
-1666 292 -438 800 -696 1320 -670 553 27 1034 340 1282 834 249 495 202 1089
-122 1549 -79 112 -238 270 -352 351 -174 123 -410 221 -618 257 -91 15 -302
26 -372 19z"/>
<path d="M5835 7499 c-334 -35 -658 -191 -900 -435 -217 -218 -356 -480 -417
-787 -31 -158 -31 -396 0 -554 124 -625 610 -1103 1230 -1210 130 -22 374 -22
504 0 626 108 1123 604 1234 1232 26 148 24 386 -4 532 -61 307 -199 569 -417
787 -324 326 -768 483 -1230 435z"/>
<path d="M9295 4018 c-423 -48 -824 -295 -1066 -656 -470 -702 -277 -1646 431
-2105 510 -329 1151 -324 1661 14 126 84 324 282 408 408 340 513 342 1171 4
1677 -316 475 -866 728 -1438 662z"/>
</g>
</svg>
