<?xml version="1.0" standalone="no"?>
<!DOCTYPE svg PUBLIC "-//W3C//DTD SVG 20010904//EN"
 "http://www.w3.org/TR/2001/REC-SVG-20010904/DTD/svg10.dtd">
<svg version="1.0" xmlns="http://www.w3.org/2000/svg"
 width="100.000000pt" height="100.000000pt" viewBox="0 0 2048.000000 2048.000000"
 preserveAspectRatio="xMidYMid meet">

<g transform="translate(0.000000,2048.000000) scale(0.100000,-0.100000)"
fill="#000000" stroke="none">
<path d="M2430 20453 c-641 -62 -1200 -322 -1641 -762 -402 -403 -655 -907
-745 -1486 -18 -116 -19 -352 -19 -7965 0 -7613 1 -7849 19 -7965 90 -579 345
-1087 747 -1487 402 -400 891 -646 1479 -745 100 -17 504 -18 7895 -21 5481
-2 7824 0 7905 8 524 49 1004 243 1420 577 198 158 429 420 569 645 86 138
190 347 241 488 53 144 112 378 136 535 18 116 19 381 19 7965 0 7613 -1 7849
-19 7965 -90 580 -346 1088 -750 1490 -202 201 -435 367 -686 492 -256 126
-467 193 -790 250 -88 16 -640 17 -7920 18 -4304 1 -7841 0 -7860 -2z m15801
-280 c422 -84 764 -238 1073 -481 99 -77 330 -311 403 -407 250 -331 398 -674
470 -1085 17 -101 18 -404 18 -7960 0 -7556 -1 -7859 -18 -7960 -90 -519 -308
-943 -671 -1306 -363 -363 -786 -580 -1306 -671 -101 -17 -404 -18 -7960 -18
-7533 0 -7859 1 -7960 18 -525 91 -974 325 -1335 698 -339 350 -546 757 -638
1254 l-22 120 0 7865 0 7865 22 120 c76 410 235 767 481 1079 77 99 311 330
407 403 258 195 528 331 813 409 119 32 305 69 397 77 22 2 3568 3 7880 2
l7840 -1 106 -21z"/>
<path d="M4004 18735 c-679 -86 -1279 -417 -1703 -939 -164 -201 -331 -497
-419 -741 -50 -138 -104 -353 -128 -510 -24 -151 -27 -560 -5 -700 48 -323
131 -583 270 -851 133 -256 279 -452 492 -659 417 -405 924 -645 1514 -715
142 -17 435 -15 589 4 1240 155 2187 1167 2255 2408 31 564 -114 1097 -427
1574 -92 140 -208 278 -353 419 -213 207 -389 331 -664 465 -239 117 -473 191
-751 235 -140 23 -525 29 -670 10z"/>
<path d="M15955 18744 c-498 -51 -942 -223 -1334 -517 -124 -93 -341 -304
-444 -432 -466 -578 -658 -1320 -533 -2055 126 -738 574 -1390 1218 -1772 930
-551 2093 -468 2933 209 128 103 339 320 432 444 271 362 435 759 505 1224 20
140 17 550 -6 700 -113 737 -514 1370 -1126 1777 -151 101 -381 217 -545 276
-134 49 -363 107 -505 128 -100 15 -504 27 -595 18z"/>
<path d="M9960 12799 c-476 -58 -900 -228 -1278 -511 -124 -93 -341 -304 -445
-433 -284 -353 -470 -774 -544 -1237 -28 -176 -25 -607 5 -782 76 -438 234
-807 494 -1154 89 -119 302 -339 423 -437 339 -276 750 -462 1195 -542 133
-25 167 -27 425 -27 247 -1 295 2 409 22 438 76 809 235 1151 491 122 92 341
304 440 426 227 279 412 648 500 996 58 227 69 333 69 629 0 240 -2 291 -22
404 -76 437 -235 810 -491 1151 -96 127 -306 343 -436 448 -349 281 -747 459
-1205 538 -99 17 -176 22 -370 24 -135 2 -279 -1 -320 -6z"/>
<path d="M4140 6870 c-503 -33 -983 -211 -1387 -514 -135 -101 -350 -309 -455
-441 -295 -369 -476 -791 -550 -1280 -20 -137 -17 -550 5 -695 163 -1061 921
-1892 1952 -2140 328 -79 699 -91 1035 -34 395 68 787 238 1118 486 124 93
341 304 445 433 569 705 725 1659 412 2511 -87 237 -248 520 -411 724 -88 109
-275 296 -384 384 -261 208 -588 379 -906 471 -266 77 -597 113 -874 95z"/>
<path d="M16006 6869 c-507 -32 -1005 -223 -1415 -542 -125 -97 -320 -288
-415 -407 -163 -204 -324 -487 -411 -724 -314 -852 -157 -1805 412 -2511 44
-55 141 -158 214 -230 211 -204 389 -330 654 -460 188 -92 309 -137 500 -185
247 -62 355 -75 635 -75 277 1 390 14 625 72 463 115 897 367 1227 711 375
392 609 869 695 1422 22 145 25 557 5 695 -70 465 -235 865 -505 1224 -94 125
-306 343 -432 444 -343 276 -748 460 -1173 533 -120 20 -421 47 -472 43 -8 -1
-73 -6 -144 -10z"/>
</g>
</svg>
